<?xml version="1.0" encoding="utf-8"?>
<!-- Generator: Adobe Illustrator 16.0.0, SVG Export Plug-In . SVG Version: 6.00 Build 0)  -->
<!DOCTYPE svg PUBLIC "-//W3C//DTD SVG 1.1//EN" "http://www.w3.org/Graphics/SVG/1.1/DTD/svg11.dtd">
<svg version="1.1" id="Layer_1" xmlns="http://www.w3.org/2000/svg" xmlns:xlink="http://www.w3.org/1999/xlink" x="0px" y="0px"
	 width="86.3px" height="44px" viewBox="0 0 86.3 44" style="enable-background:new 0 0 86.3 44;" xml:space="preserve">
<path style="fill:#231F20;" d="M78.1,24.5l7.7-8.3h-5l-5.6,6.5c-0.3,0.4-0.7,0.8-1.1,1.4V8.8h-4.2v26.7h4.2v-7.1l1.4-1.6l6.1,8.6
	h4.7L78.1,24.5z"/>
<circle style="fill:#231F20;" cx="64.6" cy="10.9" r="2.5"/>
<path style="fill:#231F20;" d="M37.5,35.6c-1.6,0-4.3-0.1-7.3-0.1V8.8c2.1,0,5.1-0.1,8.3-0.1c5.7,0,8.7,2.4,8.7,6.5
	c0,2.7-1.6,5.1-4.3,6.1v0.1c3.5,0.7,5.1,3.3,5.1,6.1C47.9,30.9,45.6,35.6,37.5,35.6z M37.7,12.1c-1.1,0-2.2,0-3.2,0.1v7.9
	c0.7,0,1.4,0,2.3,0c4,0,5.8-1.6,5.8-4.3C42.6,13.7,41.4,12.1,37.7,12.1z M36.9,23.3c-0.4,0-1.8,0-2.4,0v8.5c0.7,0.1,1.8,0.2,3.2,0.2
	c3.9,0,5.7-1.9,5.7-4.6C43.4,24.4,40.6,23.3,36.9,23.3z"/>
<path style="fill:#231F20;" d="M62.5,35.5V16.2h4.2v19.3H62.5z"/>
<path style="fill:#231F20;" d="M54.4,19.7v-3.5h-1.6h-2.4v19.3h4.2v-7.6c0-5.9,1.9-8.6,5.8-7.9l0.2-4.1
	C57.3,15.5,55.4,17.4,54.4,19.7z"/>
<path style="fill:#D0232B;" d="M0,8.9v26.7h26.7V8.9H0z M19.2,21.5c-2.8,0-5.1-2.3-5.1-5.1s2.3-5.1,5.1-5.1c2.8,0,5.1,2.3,5.1,5.1
	S22,21.5,19.2,21.5z"/>
</svg>
