<svg width="314" height="314" viewBox="0 0 314 314" xmlns="http://www.w3.org/2000/svg">
  <title>
    css
  </title>
  <g fill="none" fill-rule="evenodd">
    <path fill="#FFF" d="M0 0h314v314H0z"/>
    <g fill-rule="nonzero">
      <path fill="#264DE4" d="M157 303.5L72 280 53 67.6h208.2l-19 212.2"/>
      <path fill="#2965F1" d="M226 266.4L242.2 85h-85v200.5"/>
      <path fill="#EBEBEB" d="M96.5 163.8l2.3 26H157v-26M91.8 111l2.3 26h63v-26M157 231.4l-29-7.8-2-20.8h-26l3.6 41 53.4 14.7"/>
      <path fill="#000" d="M102 10h31.6v13.2h-18.4v13.2h18.4v13.2H102M140 10h31.4v11.5H153v2.3h18.4V50H140V38H158V36H140M177.8 10h31.5v11.5H191v2.3h18.3V50h-31.5V38H196V36H178"/>
      <path fill="#FFF" d="M217.6 163.8l4.7-52.7H157v26h36.7l-2.3 26.8H157v26h32l-3 33.7-29 8v27l53.4-14.8.4-4.4 6-68.6"/>
    </g>
  </g>
</svg>
