<?xml version="1.0"?>
<svg xmlns="http://www.w3.org/2000/svg" version="1.1" viewBox="0 0 467.824 134.63">
  <g>
  <g>
    <path fill-rule="evenodd" clip-rule="evenodd" fill="#F1625D" d="M465.063,65.952c0.762,37.175-28.761,67.92-65.934,68.678       c-37.169,0.754-67.917-28.765-68.674-65.936c-0.758-37.177,28.761-67.922,65.938-68.68       C433.564-0.74,464.313,28.781,465.063,65.952z"/>
    <g>
      <path fill-rule="evenodd" clip-rule="evenodd" fill="#FFFFFF" d="M412.606,71.638c0.183-0.301,0.306-0.739,0.575-0.875        c0.437-0.222,1.045-0.435,1.441-0.29c0.28,0.099,0.579,0.937,0.429,1.232c-0.44,0.905-0.989,1.818-1.699,2.528        c-1.045,1.06-2.434,0.646-2.935-0.788c-0.16-0.47-0.243-1.008-0.216-1.504c0.22-3.797,0.463-7.596,0.732-11.387        c0.048-0.665,0.481-1.077,1.202-1c0.713,0.08,1.012,0.545,0.944,1.234c-0.183,1.82-0.407,3.638-0.56,5.464        c-0.142,1.766-0.216,3.533-0.317,5.301C412.337,71.582,412.468,71.612,412.606,71.638z"/>
      <path fill-rule="evenodd" clip-rule="evenodd" fill="#FFFFFF" d="M419.531,40.606c2.068,0.333,3.562,1.15,4.88,2.292        c0.197,0.175,0.272,0.728,0.148,0.974c-0.148,0.31-0.578,0.706-0.873,0.691c-1.684-0.067-3.379-0.269-4.708-1.415        c-0.381-0.327-0.676-1.101-0.556-1.553C418.542,41.15,419.236,40.853,419.531,40.606z"/>
      <path fill-rule="evenodd" clip-rule="evenodd" fill="#FFFFFF" d="M408.764,53.076c-0.399-0.231-0.866-0.403-1.318-0.455        c-1.516-0.172-2.625,0.629-3.479,1.743c-3.281,4.277-5.204,9.064-5.186,14.532c0.008,0.719,0.03,1.432,0.045,2.146        c-0.101,0.021-0.198,0.047-0.291,0.073c-0.329-0.708-0.709-1.396-0.979-2.128c-1.157-3.126-2.266-6.27-3.431-9.397        c-0.25-0.681-0.538-1.4-1.482-1.389c-1.026,0.019-1.333,0.769-1.627,1.544c-0.079,0.2-0.168,0.409-0.206,0.622        c-0.59,3.315-1.206,6.623-1.747,9.942c-0.231,1.43-0.321,2.878-0.504,4.517c-0.508-0.276-0.829-0.424-1.124-0.608        c-1.59-0.969-2.669-2.371-3.479-4.022c-1.818-3.692-2.781-7.637-3.333-11.678c-0.176-1.29-1.143-1.543-1.957-1.947        c-0.765-0.375-1.333,0.276-1.661,0.918c-0.825,1.617-2.188,2.486-3.86,3.003c-0.452,0.14-0.9,0.319-1.325,0.513        c-4.096,1.874-8.191,3.752-12.447,5.701c-1.042-1.9-3.483-3.289-3.02-6.253c0.142-0.924-0.37-1.602-1.527-1.535        c-0.31,0.021-0.799-0.315-0.952-0.62c-0.937-1.867-1.818-3.759-2.684-5.66c-0.258-0.575-0.411-1.195-0.661-1.967        c0.4,0.119,0.594,0.246,0.732,0.205c0.515-0.163,1.012-0.377,1.512-0.573c-0.224-0.479-0.317-1.137-0.691-1.403        c-0.762-0.543-1.643-0.959-2.531-1.271c-0.885-0.306-1.702,0.334-1.732,1.273c-0.015,0.43,0.067,0.874,0.187,1.295        c1.004,3.588,2.58,6.935,4.461,10.131c0.713,1.211,1.176,2.389,0.997,3.83c-0.149,1.271-0.243,2.585-0.093,3.847        c0.25,2.251-0.329,4.002-2.386,5.145c-0.28,0.153-0.508,0.418-0.754,0.642c-3.319,3.06-6.253,6.392-7.915,10.7        c-1.564,4.021-0.336,7.095,3.786,8.27c2.646,0.756,5.447,1.236,8.19,1.331c3.469,0.125,6.967-0.144,10.435-0.472        c2.131-0.202,4.245-0.728,6.324-1.27c1.814-0.474,2.916-1.932,2.744-3.771c-0.16-1.648-0.47-3.364-1.135-4.867        c-2.139-4.836-5.6-8.756-9.218-12.533c-0.772-0.816-1.549-1.629-2.412-2.533c3.976-2.512,8.057-4.327,12.361-5.912        c0.056,0.31,0.089,0.394,0.067,0.45c-0.082,0.241-0.175,0.485-0.291,0.709c-1.221,2.404-2.08,4.924-2.482,7.601        c-0.411,2.722,0.877,5.727,3.106,7.049c1.889,1.124,3.704,0.733,4.749-1.223c0.676-1.278,1.12-2.697,1.512-4.097        c0.366-1.311,0.522-2.681,0.773-4.021c0.549,0.683,0.862,1.377,1.202,2.057c1.191,2.375,2.867,4.269,5.331,5.35        c1.773,0.786,3.035,0.093,3.326-1.826c0.34-2.316,0.567-4.653,0.907-6.97c0.258-1.751,0.605-3.478,0.907-5.217        c0.116-0.002,0.228-0.005,0.344-0.011c0.164,0.392,0.328,0.788,0.485,1.18c1.112,2.867,2.176,5.759,3.367,8.59        c0.347,0.812,0.967,1.628,1.688,2.115c0.534,0.362,1.504,0.429,2.128,0.202c0.396-0.142,0.687-1.059,0.702-1.637        c0.033-1.051-0.194-2.115-0.262-3.173c-0.28-4.618,1.307-8.729,3.565-12.621c0.452-0.778,1.102-1.48,1.777-2.08        c0.287-0.253,0.952-0.332,1.329-0.188c0.661,0.252,1.254,0.396,1.668-0.235C409.728,54.062,409.425,53.445,408.764,53.076z         M355.572,65.918c0.12-0.032,0.254-0.058,0.381-0.089c0.459,0.603,0.956,1.178,1.355,1.816c0.116,0.183,0.052,0.655-0.108,0.79        c-0.433,0.369-0.963,0.623-1.725,1.09C355.508,68.159,355.535,67.041,355.572,65.918z M362.188,73.018        c3.394,3.582,6.6,7.304,8.635,11.87c0.374,0.827,0.646,1.721,0.829,2.613c0.347,1.643-0.269,2.609-1.904,3.039        c-4.573,1.202-9.251,1.52-13.948,1.493c-3.046-0.013-6.082-0.192-8.979-1.262c-0.415-0.153-0.821-0.334-1.206-0.551        c-1.71-0.956-2.315-2.104-1.568-3.929c0.848-2.05,1.811-4.122,3.129-5.884c1.545-2.072,3.528-3.819,5.327-5.693        c0.142-0.147,0.354-0.224,0.691-0.428c0.093,0.532,0.205,0.938,0.239,1.35c0.153,2.125,0.202,4.258,0.47,6.364        c0.124,0.937,0.579,1.879,1.072,2.708c0.213,0.349,1.015,0.67,1.374,0.538c0.43-0.161,0.84-0.79,0.941-1.281        c0.134-0.659,0.007-1.389-0.089-2.078c-0.045-0.293-0.276-0.76-0.478-0.792c-1.187-0.187-1.023-1.065-1.042-1.85        c-0.052-2.01-0.131-4.021-0.093-6.031c0.007-0.487,0.313-1.114,0.683-1.436c0.829-0.713,1.792-1.275,2.792-1.967        C360.108,70.884,361.164,71.935,362.188,73.018z M377.744,73.494c-0.213,0.922-0.567,1.825-0.997,2.669        c-0.541,1.079-1.146,1.165-2.113,0.405c-1.348-1.066-1.863-2.57-1.777-4.185c0.247-4.149,2.117-7.722,4.32-11.137        c0.269-0.412,0.81-0.659,1.393-1.12c0.093,0.55,0.171,0.858,0.187,1.161C378.958,65.403,378.651,69.48,377.744,73.494z"/>
      <path fill-rule="evenodd" clip-rule="evenodd" fill="#FFFFFF" d="M467.639,71.735c-0.235-0.261-0.866-0.358-1.243-0.248        c-0.418,0.125-0.743,0.56-1.104,0.868c-3.058,2.628-5.085,2.731-7.967-0.052c-2.046-1.979-3.838-4.23-5.63-6.455        c-1.859-2.314-3.121-2.645-5.548-1.131c-0.038-0.097-0.108-0.188-0.104-0.276c0.015-0.257,0.044-0.515,0.086-0.758        c0.519-3.005,0.443-5.996-0.34-8.938c-0.997-3.754-4.014-4.67-7.038-2.191c-0.197,0.161-0.384,0.34-0.567,0.519        c-3.199,3.269-3.711,7.362-3.468,11.637c0.101,1.766,0.471,3.509,0.724,5.26c-2.818-0.101-5.42-2.337-6.339-5.544        c-0.84-2.955-1.041-5.977-0.731-9.037c0.123-1.208-0.284-2.279-1.016-2.436c-1.19-0.265-1.579,0.665-2.023,1.475        c-0.135,0.252-0.258,0.519-0.366,0.799c-0.937,2.582-1.889,5.162-2.796,7.752c-0.639,1.828-1.209,3.668-1.814,5.507        c-0.123-0.017-0.247-0.034-0.374-0.05c-0.149-0.706-0.392-1.408-0.437-2.121c-0.235-3.804-0.44-7.616-0.627-11.424        c-0.037-0.756-0.224-1.359-1.075-1.355c-0.81,0.004-1.142,0.513-1.108,1.314c0.044,1.104,0.078,2.207,0.048,3.308        c-0.116,5.111,0.679,10.077,2.244,14.938c0.217,0.672,0.493,1.269,1.239,1.034c0.422-0.13,0.87-0.649,1.016-1.092        c1.348-4.065,2.628-8.163,3.942-12.244c0.157-0.481,0.399-0.931,0.694-1.602c0.295,1.841,0.44,3.409,0.821,4.921        c1.046,4.17,3.435,7.123,7.852,7.961c1.172,0.224,2.404,0.151,3.606,0.122c1.008-0.034,2.177,0.086,2.979-0.372        c1.702-0.961,3.277-2.182,4.782-3.444c0.91-0.766,1.586-1.803,2.49-2.864c0.724,0.822,1.254,1.32,1.661,1.912        c1.93,2.796,4.106,5.357,6.828,7.428c4.137,3.142,7.911,1.168,10.748-1.889C467.896,72.736,467.855,71.978,467.639,71.735z         M443.716,64.317c-0.657,2.568-2.472,4.069-4.741,5.16c-0.717,0.347-1.165,0.067-1.318-0.624        c-0.354-1.672-0.657-3.36-0.978-5.036c0.108-3.155,0.526-6.145,2.587-8.632c0.563-0.679,1.359-1.213,2.14-1.665        c0.75-0.44,1.475-0.166,1.766,0.668c0.381,1.101,0.717,2.23,0.918,3.369C444.5,59.83,444.287,62.088,443.716,64.317z"/>
    </g>
  </g>
  <g>
    <path fill="#414042" d="M45.371,68.323c-0.114,6.315-0.575,11.715-4.424,17.112c-4.249,5.916-10.622,8.501-17.86,8.501       C9.475,93.936,0,84.69,0,71.078C0,57.007,9.535,47.76,23.49,47.76c8.902,0,15.794,4.021,19.529,12.118l-10.685,4.48       c-1.551-4.135-4.824-6.892-9.361-6.892c-7.409,0-11.258,7.063-11.258,13.667c0,6.72,4.021,13.556,11.43,13.556       c4.881,0,8.614-2.528,9.076-7.525h-9.19v-8.842H45.371z"/>
    <path fill="#414042" d="M60.174,58.73v7.235h12.693V75.5H60.174v7.467h13.38V92.5H48.918V49.197h24.636v9.533H60.174z"/>
    <path fill="#414042" d="M97.717,92.5H86.458V58.73h-9.302v-9.533h29.864v9.533h-9.303V92.5z"/>
    <path fill="#414042" d="M119.986,54.136v12.174h15.049v4.939h-15.049V92.5h-5.395V49.197h20.963v4.939H119.986z"/>
    <path fill="#414042" d="M145.485,92.5h-5.398V49.197h5.398V92.5z"/>
    <path fill="#414042" d="M165.234,92.5h-5.398V54.136h-10.281v-4.939h25.961v4.939h-10.282V92.5z"/>
    <path fill="#414042" d="M194.253,86.411l16.199-39.397l16.195,39.397l12.003-37.214h2.755l-14.587,44.739l-16.539-40.031       l-16.482,40.031l-14.474-44.739h2.755L194.253,86.411z"/>
    <path fill="#414042" d="M249.474,92.5h-2.759V49.197h2.759V92.5z"/>
    <path fill="#414042" d="M268.417,92.5h-2.759V51.78h-11.196v-2.583h25.151v2.583h-11.196V92.5z"/>
    <path fill="#414042" d="M313.662,67.576V49.197h2.755V92.5h-2.755V70.16h-26.305V92.5h-2.759V49.197h2.759v18.379H313.662z"/>
  </g>
</g>
</svg>
