<svg width="1024" height="1024" viewBox="0 0 1024 1024" xmlns="http://www.w3.org/2000/svg">
  <title>
    html
  </title>
  <g fill="none" fill-rule="evenodd">
    <path fill="#E44D26" d="M244.5 900L185 232.3h654l-59.7 667.4L511.6 974"/>
    <path fill="#F16529" d="M512 917.3l216.3-60 51-570.3H512"/>
    <path fill="#EBEBEB" d="M512 534.5H403.6l-7.5-83.8h116v-82H306.7l2 22 20 225.7H512M512 747l-.4.2-91.2-24.6-5.8-65.3h-82.3L344 786l167.6 46.4h.4"/>
    <path fill="#000" d="M245.8 51h41.6v41h38V51h41.7v124.5h-41.5v-41.7h-38v41.7h-41.7V51M421.8 92.3h-36.6V51h115v41.3h-36.8v83.2h-41.6V92.3M518.3 51h43.4l26.6 43.7L615 51h43.4v124.5H617v-61.7L588.3 158h-.7L559 113.8v61.7h-40.7M679 51h41.7v83.3h58.5v41.2h-100"/>
    <path fill="#FFF" d="M511.7 534.5v82h100.8l-9.5 106-91.3 24.7v85.2L679.5 786l1.2-14L700 556.5l2-22h-22M511.7 368.8v81.9h197.8l1.6-18.4 3.8-41.5 2-22"/>
  </g>
</svg>
