<svg xmlns="http://www.w3.org/2000/svg" xmlns:xlink="http://www.w3.org/1999/xlink" version="1.1" x="0px" y="0px" width="1735px" height="160.856px" viewBox="0 0 1735 160.856" enable-background="new 0 0 1735 160.856" xml:space="preserve"><style>.style0{fill: #3F4055;}</style><g><path d="M347.348 160.856c47.99 0 82.841-36.215 82.841-80.43v-0.445C430.188 35.8 395.8 0 347.8 0 s-82.841 36.216-82.841 80.427v0.445C264.951 125.1 299.4 160.9 347.3 160.9 M301.987 80 c0-26.659 17.811-48.435 45.361-48.435c27.549 0 45.8 22.2 45.8 48.879v0.445c0 26.659-17.811 48.435-45.36 48.4 c-27.549 0-45.805-22.218-45.805-48.88V79.982z" class="style0"/><polygon points="607.7,157.9 670.6,1.2 633.7,1.2 593,110.8 552.4,1.2 514.6,1.2 577.5,157.9" class="style0"/><rect x="774.9" y="1.2" width="34.2" height="156.7" class="style0"/><path d="M1068.35 80.427v-0.445c0-43.766-34.093-78.747-82.973-78.747h-59.474v156.691h59.474 C1034.257 157.9 1068.3 124.2 1068.3 80.4 M960.09 32.574h25.287c27.994 0 48.8 20.3 48.8 47.853v0.445 c0 27.549-20.791 45.717-48.785 45.717H960.09V32.574z" class="style0"/><rect x="1176.6" y="1.2" width="37" height="156.7" class="style0"/><path d="M1364.399 123.74h65.765l14.22 34.187h35.771L1413.502 1.235h-31.55L1315.3 157.927h34.883L1364.399 123.7 z M1397.282 41.966l20.663 50.435h-41.326L1397.282 41.966z" class="style0"/><polygon points="37,56.7 78.5,123.7 79.4,123.7 122.5,57.3 122.5,157.9 156.7,157.9 156.7,1.2 119.4,1.2 78.5,67.5 37.1,2 0,55.7 0,157.9 37,157.9" class="style0"/><polygon points="1612.5,57.3 1655.5,123.7 1656.4,123.7 1700.8,56.7 1700.8,158.2 1735,108.1 1735,1.2 1697.3,1.2 1656.4,67 1615.5,1.2 1578.3,1.2 1578.3,157.9 1612.5,157.9" class="style0"/></g></svg>